<svg xmlns="http://www.w3.org/2000/svg" viewBox="0 0 24 24" width="100%" height="100%" xmlns:xlink="http://www.w3.org/1999/xlink"><path d="M12 14c3 0 4-1.84 4-4.12V7.12C16 4.84 15 3 12 3S8 4.84 8 7.12v2.76C8 12.16 9 14 12 14ZM9 7.12C9 4.32 10.71 4 12 4s3 .32 3 3.12v2.76c0 2.8-1.71 3.12-3 3.12s-3-.32-3-3.12Z"></path><path d="M21 18.45A5.48 5.48 0 0 0 17.49 13a4.54 4.54 0 0 1-.42.89A4.51 4.51 0 0 1 20 18.45V20H4v-1.55a4.5 4.5 0 0 1 2.93-4.55 5.33 5.33 0 0 1-.43-.9A5.47 5.47 0 0 0 3 18.45V21h18v-2.55Z"></path></svg>